<svg width="108" height="56" viewBox="0 0 108 56" fill="none" xmlns="http://www.w3.org/2000/svg">
<rect x="0.5" y="0.5" width="107" height="55" rx="1.5" fill="white" stroke="#EEEFF0"/>
<path d="M34.6485 19H24.8042V37.9677H34.6485V19Z" fill="#EBF7F7"/>
<path d="M24.8029 19H18.5383C17.0617 19 15.8535 20.0839 15.8535 21.6194V35.3484C15.8535 36.8839 17.0617 37.9677 18.5383 37.9677H24.8029V19Z" fill="#589F58"/>
<path d="M40.9108 19H34.6462V37.9677H40.9108C42.3875 37.9677 43.5956 36.8839 43.5956 35.3484V21.6194C43.5956 20.0839 42.3875 19 40.9108 19Z" fill="#589F58"/>
<path d="M40.9113 19H34.6467V32.5935L40.8218 37.9677C42.2985 37.9677 43.5961 36.8839 43.5961 35.3484V21.6194C43.5961 20.0839 42.388 19 40.9113 19Z" fill="#479347"/>
<path d="M34.6485 32.5935V19H24.8042V24.3742L34.6485 32.5935Z" fill="#E2F2F1"/>
<path d="M24.8024 19H18.5378L24.8024 24.3742V19Z" fill="#479347"/>
<path d="M34.6467 37.9675H40.9113C42.388 37.9675 43.5961 37.0643 43.5961 35.2578H34.6467V37.9675Z" fill="#398439"/>
<path d="M34.6485 35.2578H24.8042V37.9675H34.6485V35.2578Z" fill="#D6EAE8"/>
<path d="M15.8535 35.2578C15.8535 37.0643 17.0617 37.9675 18.5383 37.9675H24.8029V35.2578H15.8535Z" fill="#398439"/>
<path d="M40.9108 19H34.6462V23.7871L43.5956 26.5871V21.6194C43.5956 20.0839 42.3875 19 40.9108 19Z" fill="#398439"/>
<path d="M34.6485 23.7871V19H24.8042V20.8516L34.6485 23.7871Z" fill="#D6EAE8"/>
<path d="M24.8024 19H18.5378L24.8024 20.8516V19Z" fill="#398439"/>
<path d="M59.6528 32.2102V25.6477H60.7664V32.2102H59.6528ZM56.9283 29.4858V28.3722H63.4908V29.4858H56.9283ZM65.3999 34V33.1051L68.7607 29.4261C69.1551 28.9953 69.4799 28.6207 69.7352 28.3026C69.9904 27.9811 70.1793 27.6795 70.3019 27.3977C70.4279 27.1127 70.4908 26.8144 70.4908 26.5028C70.4908 26.1449 70.4047 25.835 70.2323 25.5732C70.0633 25.3113 69.8313 25.1091 69.5363 24.9666C69.2413 24.8241 68.9099 24.7528 68.542 24.7528C68.1509 24.7528 67.8095 24.834 67.5178 24.9964C67.2295 25.1555 67.0057 25.3793 66.8467 25.6676C66.6909 25.956 66.613 26.294 66.613 26.6818H65.4397C65.4397 26.0852 65.5772 25.5616 65.8523 25.1108C66.1274 24.66 66.502 24.3087 66.9759 24.0568C67.4532 23.8049 67.9885 23.679 68.5817 23.679C69.1783 23.679 69.707 23.8049 70.1677 24.0568C70.6284 24.3087 70.9897 24.6484 71.2515 25.076C71.5133 25.5036 71.6442 25.9792 71.6442 26.5028C71.6442 26.8774 71.5763 27.2436 71.4404 27.6016C71.3078 27.9562 71.0758 28.3523 70.7444 28.7898C70.4163 29.224 69.9605 29.7543 69.3772 30.3807L67.0903 32.8267V32.9062H71.8232V34H65.3999ZM77.3168 34.1392C76.6606 34.1392 76.0756 34.0265 75.5619 33.8011C75.0514 33.5758 74.6454 33.2625 74.3438 32.8615C74.0455 32.4571 73.8831 31.9882 73.8566 31.4545H75.1094C75.136 31.7827 75.2486 32.0661 75.4475 32.3047C75.6464 32.54 75.9066 32.7223 76.228 32.8516C76.5495 32.9808 76.9058 33.0455 77.2969 33.0455C77.7344 33.0455 78.1222 32.9692 78.4603 32.8168C78.7984 32.6643 79.0635 32.4522 79.2557 32.1804C79.448 31.9086 79.5441 31.5938 79.5441 31.2358C79.5441 30.8613 79.4513 30.5315 79.2657 30.2464C79.0801 29.9581 78.8083 29.7327 78.4504 29.5703C78.0924 29.4079 77.6549 29.3267 77.1379 29.3267H76.3225V28.233H77.1379C77.5422 28.233 77.8968 28.16 78.2018 28.0142C78.51 27.8684 78.7503 27.6629 78.9227 27.3977C79.0983 27.1326 79.1861 26.821 79.1861 26.4631C79.1861 26.1184 79.1099 25.8184 78.9575 25.5632C78.805 25.308 78.5896 25.1091 78.3111 24.9666C78.0361 24.8241 77.7112 24.7528 77.3367 24.7528C76.9854 24.7528 76.6539 24.8175 76.3424 24.9467C76.0342 25.0727 75.7823 25.2566 75.5867 25.4986C75.3912 25.7372 75.2851 26.0256 75.2685 26.3636H74.0754C74.0952 25.83 74.256 25.3627 74.5576 24.9616C74.8592 24.5573 75.2536 24.2424 75.7408 24.017C76.2314 23.7917 76.77 23.679 77.3566 23.679C77.9863 23.679 78.5266 23.8066 78.9773 24.0618C79.4281 24.3137 79.7745 24.6468 80.0164 25.0611C80.2584 25.4754 80.3793 25.9228 80.3793 26.4034C80.3793 26.9768 80.2285 27.4657 79.9269 27.87C79.6286 28.2744 79.2226 28.5545 78.7089 28.7102V28.7898C79.3519 28.8958 79.854 29.1693 80.2153 29.6101C80.5765 30.0476 80.7572 30.5895 80.7572 31.2358C80.7572 31.7893 80.6064 32.2865 80.3048 32.7273C80.0065 33.1648 79.5988 33.5095 79.0817 33.7614C78.5647 34.0133 77.9764 34.1392 77.3168 34.1392ZM82.5519 31.9119V30.8977L87.0263 23.8182H87.7621V25.3892H87.265L83.8843 30.7386V30.8182H89.9099V31.9119H82.5519ZM87.3445 34V31.6037V31.1314V23.8182H88.5178V34H87.3445Z" fill="#212529"/>
</svg>
