<svg width="85" height="14" viewBox="0 0 85 14" fill="none" xmlns="http://www.w3.org/2000/svg">
<path d="M2.30991 10.2955C2.30991 10.4957 2.23676 10.6651 2.09047 10.8037C1.94417 10.9346 1.77478 11 1.58229 11C1.3667 11 1.19345 10.9346 1.06256 10.8037C0.931663 10.6651 0.866216 10.4957 0.866216 10.2955V3.61984C0.866216 3.41965 0.935513 3.25411 1.07411 3.12321C1.2127 2.98462 1.3898 2.91532 1.60539 2.91532C1.79018 2.91532 1.95187 2.98462 2.09047 3.12321C2.23676 3.25411 2.30991 3.41965 2.30991 3.61984V10.2955ZM7.23453 4.7055C7.8043 4.7055 8.23549 4.82484 8.52807 5.06354C8.82836 5.30223 9.0324 5.62176 9.1402 6.02215C9.2557 6.41483 9.31344 6.85371 9.31344 7.3388V10.2955C9.31344 10.4957 9.248 10.6651 9.1171 10.8037C8.98621 10.9346 8.82066 11 8.62047 11C8.42028 11 8.25473 10.9346 8.12384 10.8037C7.99295 10.6651 7.9275 10.4957 7.9275 10.2955V7.3388C7.9275 7.0847 7.89285 6.85756 7.82355 6.65737C7.76195 6.44948 7.64646 6.28394 7.47707 6.16074C7.30767 6.03755 7.06513 5.97595 6.74944 5.97595C6.44146 5.97595 6.17967 6.03755 5.96408 6.16074C5.75618 6.28394 5.59449 6.44948 5.47899 6.65737C5.3712 6.85756 5.3173 7.0847 5.3173 7.3388V10.2955C5.3173 10.4957 5.25185 10.6651 5.12096 10.8037C4.99006 10.9346 4.82452 11 4.62433 11C4.42414 11 4.25859 10.9346 4.1277 10.8037C3.9968 10.6651 3.93136 10.4957 3.93136 10.2955V5.52552C3.93136 5.32532 3.9968 5.15978 4.1277 5.02889C4.25859 4.89029 4.42414 4.82099 4.62433 4.82099C4.82452 4.82099 4.99006 4.89029 5.12096 5.02889C5.25185 5.15978 5.3173 5.32532 5.3173 5.52552V6.02215L5.14406 5.9875C5.21336 5.8566 5.31345 5.71801 5.44435 5.57171C5.57524 5.41772 5.72923 5.27528 5.90633 5.14438C6.08342 5.01349 6.28361 4.90954 6.5069 4.83254C6.7302 4.74785 6.97274 4.7055 7.23453 4.7055ZM10.4534 10.0414C10.3764 9.93359 10.3418 9.795 10.3495 9.6256C10.3572 9.45621 10.4573 9.30992 10.6498 9.18672C10.773 9.10972 10.9039 9.07893 11.0424 9.09433C11.181 9.10203 11.3158 9.17132 11.4467 9.30222C11.67 9.52551 11.9048 9.69875 12.1512 9.82195C12.3976 9.94514 12.7056 10.0067 13.0752 10.0067C13.1907 9.99904 13.3177 9.98364 13.4563 9.96054C13.5949 9.92974 13.7142 9.86814 13.8143 9.77575C13.9221 9.67565 13.976 9.52551 13.976 9.32532C13.976 9.15592 13.9183 9.02118 13.8028 8.92108C13.6873 8.82099 13.5333 8.73629 13.3408 8.66699C13.156 8.5977 12.9481 8.53225 12.7171 8.47065C12.4784 8.40135 12.232 8.32436 11.978 8.23966C11.7316 8.15496 11.5044 8.04717 11.2965 7.91627C11.0886 7.77768 10.9192 7.59673 10.7884 7.37344C10.6575 7.15015 10.592 6.86911 10.592 6.53033C10.592 6.14534 10.6998 5.81811 10.9154 5.54862C11.131 5.27913 11.4082 5.07123 11.747 4.92494C12.0935 4.77865 12.4553 4.7055 12.8326 4.7055C13.0713 4.7055 13.3216 4.7363 13.5833 4.7979C13.8451 4.85179 14.0954 4.94419 14.3341 5.07508C14.5728 5.19828 14.7729 5.36382 14.9346 5.57171C15.0193 5.68721 15.0694 5.8258 15.0848 5.9875C15.1002 6.14919 15.027 6.29549 14.8653 6.42638C14.7498 6.51878 14.6151 6.56113 14.4611 6.55343C14.3071 6.53803 14.1801 6.48413 14.08 6.39173C13.9491 6.22234 13.772 6.08759 13.5487 5.9875C13.3331 5.8874 13.0829 5.83735 12.798 5.83735C12.6825 5.83735 12.5554 5.85275 12.4168 5.88355C12.2859 5.90665 12.1705 5.9644 12.0704 6.0568C11.9703 6.14149 11.9202 6.28009 11.9202 6.47258C11.9202 6.64967 11.978 6.79212 12.0935 6.89991C12.2089 7.00001 12.3629 7.08471 12.5554 7.154C12.7556 7.2156 12.9674 7.2772 13.1907 7.3388C13.4217 7.40039 13.6565 7.47354 13.8952 7.55824C14.1339 7.64293 14.3533 7.75458 14.5535 7.89317C14.7537 8.03177 14.9154 8.21271 15.0386 8.436C15.1618 8.65159 15.2234 8.92878 15.2234 9.26757C15.2234 9.66025 15.1079 9.99519 14.8769 10.2724C14.6459 10.5496 14.3572 10.7613 14.0107 10.9076C13.6642 11.0462 13.31 11.1155 12.9481 11.1155C12.4938 11.1155 12.0396 11.0385 11.5853 10.8845C11.131 10.7228 10.7537 10.4418 10.4534 10.0414ZM16.4525 4.93649H19.1897C19.3745 4.93649 19.5285 4.99809 19.6517 5.12128C19.7749 5.24448 19.8365 5.39847 19.8365 5.58326C19.8365 5.76036 19.7749 5.9105 19.6517 6.0337C19.5285 6.14919 19.3745 6.20694 19.1897 6.20694H16.4525C16.2677 6.20694 16.1137 6.14534 15.9905 6.02215C15.8673 5.89895 15.8057 5.74496 15.8057 5.56017C15.8057 5.38307 15.8673 5.23678 15.9905 5.12128C16.1137 4.99809 16.2677 4.93649 16.4525 4.93649ZM17.6883 3.4928C17.8885 3.4928 18.0502 3.56209 18.1734 3.70069C18.3043 3.83158 18.3697 3.99713 18.3697 4.19732V9.33687C18.3697 9.44466 18.389 9.53321 18.4275 9.60251C18.4737 9.6718 18.5314 9.72185 18.6007 9.75265C18.6777 9.78345 18.7586 9.79885 18.8433 9.79885C18.9357 9.79885 19.0204 9.78345 19.0973 9.75265C19.1743 9.71415 19.2629 9.6949 19.363 9.6949C19.4708 9.6949 19.567 9.74495 19.6517 9.84505C19.7441 9.94514 19.7903 10.0837 19.7903 10.2608C19.7903 10.4764 19.671 10.6535 19.4323 10.7921C19.2013 10.9307 18.9511 11 18.6816 11C18.5199 11 18.3389 10.9885 18.1387 10.9654C17.9462 10.9346 17.7615 10.8691 17.5844 10.769C17.415 10.6612 17.2725 10.4995 17.157 10.2839C17.0415 10.0683 16.9838 9.7719 16.9838 9.39461V4.19732C16.9838 3.99713 17.0492 3.83158 17.1801 3.70069C17.3187 3.56209 17.4881 3.4928 17.6883 3.4928ZM26.1677 4.7055C26.3679 4.7055 26.5335 4.77095 26.6644 4.90184C26.7953 5.03274 26.8607 5.20213 26.8607 5.41002V10.2955C26.8607 10.4957 26.7953 10.6651 26.6644 10.8037C26.5335 10.9346 26.3679 11 26.1677 11C25.9676 11 25.802 10.9346 25.6711 10.8037C25.5402 10.6651 25.4748 10.4957 25.4748 10.2955V9.72955L25.7289 9.8335C25.7289 9.93359 25.675 10.0568 25.5672 10.2031C25.4594 10.3417 25.3131 10.4803 25.1283 10.6189C24.9435 10.7575 24.7241 10.8768 24.47 10.9769C24.2236 11.0693 23.9541 11.1155 23.6615 11.1155C23.1302 11.1155 22.649 10.9808 22.2178 10.7113C21.7866 10.4341 21.444 10.0568 21.1899 9.57941C20.9435 9.09433 20.8203 8.53995 20.8203 7.91627C20.8203 7.2849 20.9435 6.73052 21.1899 6.25314C21.444 5.76806 21.7828 5.39077 22.2063 5.12128C22.6297 4.84409 23.0994 4.7055 23.6153 4.7055C23.9464 4.7055 24.2505 4.75555 24.5277 4.85564C24.8049 4.95574 25.0436 5.08278 25.2438 5.23678C25.4517 5.39077 25.6095 5.54862 25.7173 5.71031C25.8328 5.8643 25.8906 5.9952 25.8906 6.10299L25.4748 6.25314V5.41002C25.4748 5.20983 25.5402 5.04429 25.6711 4.91339C25.802 4.7748 25.9676 4.7055 26.1677 4.7055ZM23.8347 9.84505C24.1735 9.84505 24.47 9.76035 24.7241 9.59096C24.9781 9.42156 25.1745 9.19057 25.3131 8.89798C25.4594 8.60539 25.5325 8.27816 25.5325 7.91627C25.5325 7.54669 25.4594 7.2156 25.3131 6.92301C25.1745 6.63042 24.9781 6.39943 24.7241 6.23004C24.47 6.06065 24.1735 5.97595 23.8347 5.97595C23.5036 5.97595 23.2111 6.06065 22.957 6.23004C22.7029 6.39943 22.5027 6.63042 22.3564 6.92301C22.2178 7.2156 22.1485 7.54669 22.1485 7.91627C22.1485 8.27816 22.2178 8.60539 22.3564 8.89798C22.5027 9.19057 22.7029 9.42156 22.957 9.59096C23.2111 9.76035 23.5036 9.84505 23.8347 9.84505ZM31.6645 4.7055C32.2343 4.7055 32.6655 4.82484 32.9581 5.06354C33.2584 5.30223 33.4624 5.62176 33.5702 6.02215C33.6857 6.41483 33.7434 6.85371 33.7434 7.3388V10.2955C33.7434 10.4957 33.678 10.6651 33.5471 10.8037C33.4162 10.9346 33.2507 11 33.0505 11C32.8503 11 32.6847 10.9346 32.5538 10.8037C32.4229 10.6651 32.3575 10.4957 32.3575 10.2955V7.3388C32.3575 7.0847 32.3228 6.85756 32.2535 6.65737C32.1919 6.44948 32.0764 6.28394 31.9071 6.16074C31.7377 6.03755 31.4951 5.97595 31.1794 5.97595C30.8714 5.97595 30.6097 6.03755 30.3941 6.16074C30.1862 6.28394 30.0245 6.44948 29.909 6.65737C29.8012 6.85756 29.7473 7.0847 29.7473 7.3388V10.2955C29.7473 10.4957 29.6818 10.6651 29.5509 10.8037C29.4201 10.9346 29.2545 11 29.0543 11C28.8541 11 28.6886 10.9346 28.5577 10.8037C28.4268 10.6651 28.3613 10.4957 28.3613 10.2955V5.52552C28.3613 5.32532 28.4268 5.15978 28.5577 5.02889C28.6886 4.89029 28.8541 4.82099 29.0543 4.82099C29.2545 4.82099 29.4201 4.89029 29.5509 5.02889C29.6818 5.15978 29.7473 5.32532 29.7473 5.52552V6.02215L29.574 5.9875C29.6433 5.8566 29.7434 5.71801 29.8743 5.57171C30.0052 5.41772 30.1592 5.27528 30.3363 5.14438C30.5134 5.01349 30.7136 4.90954 30.9369 4.83254C31.1602 4.74785 31.4027 4.7055 31.6645 4.7055ZM35.3107 4.93649H38.048C38.2328 4.93649 38.3868 4.99809 38.51 5.12128C38.6332 5.24448 38.6948 5.39847 38.6948 5.58326C38.6948 5.76036 38.6332 5.9105 38.51 6.0337C38.3868 6.14919 38.2328 6.20694 38.048 6.20694H35.3107C35.1259 6.20694 34.972 6.14534 34.8488 6.02215C34.7256 5.89895 34.664 5.74496 34.664 5.56017C34.664 5.38307 34.7256 5.23678 34.8488 5.12128C34.972 4.99809 35.1259 4.93649 35.3107 4.93649ZM36.5465 3.4928C36.7467 3.4928 36.9084 3.56209 37.0316 3.70069C37.1625 3.83158 37.228 3.99713 37.228 4.19732V9.33687C37.228 9.44466 37.2472 9.53321 37.2857 9.60251C37.3319 9.6718 37.3897 9.72185 37.459 9.75265C37.536 9.78345 37.6168 9.79885 37.7015 9.79885C37.7939 9.79885 37.8786 9.78345 37.9556 9.75265C38.0326 9.71415 38.1211 9.6949 38.2212 9.6949C38.329 9.6949 38.4253 9.74495 38.51 9.84505C38.6024 9.94514 38.6486 10.0837 38.6486 10.2608C38.6486 10.4764 38.5292 10.6535 38.2905 10.7921C38.0595 10.9307 37.8093 11 37.5398 11C37.3781 11 37.1972 10.9885 36.997 10.9654C36.8045 10.9346 36.6197 10.8691 36.4426 10.769C36.2732 10.6612 36.1308 10.4995 36.0153 10.2839C35.8998 10.0683 35.842 9.7719 35.842 9.39461V4.19732C35.842 3.99713 35.9075 3.83158 36.0384 3.70069C36.177 3.56209 36.3463 3.4928 36.5465 3.4928ZM45.9185 11.1155C45.3795 11.1155 44.8944 11.05 44.4632 10.9192C44.032 10.7806 43.6201 10.5419 43.2274 10.2031C43.1273 10.1184 43.0503 10.0221 42.9964 9.91434C42.9425 9.80655 42.9156 9.69875 42.9156 9.59096C42.9156 9.41386 42.9772 9.25987 43.1004 9.12897C43.2313 8.99038 43.393 8.92108 43.5854 8.92108C43.7317 8.92108 43.8626 8.96728 43.9781 9.05968C44.2707 9.29837 44.5595 9.47931 44.8443 9.60251C45.1369 9.7257 45.495 9.7873 45.9185 9.7873C46.2033 9.7873 46.4651 9.74495 46.7038 9.66025C46.9425 9.56786 47.135 9.44851 47.2813 9.30222C47.4276 9.14822 47.5007 8.97498 47.5007 8.78249C47.5007 8.5515 47.4314 8.35515 47.2928 8.19346C47.1543 8.03177 46.9425 7.89702 46.6576 7.78923C46.3727 7.67373 46.0108 7.58519 45.572 7.52359C45.1562 7.46199 44.7904 7.36959 44.4748 7.2464C44.1591 7.1155 43.8934 6.95381 43.6778 6.76132C43.47 6.56113 43.3121 6.33013 43.2043 6.06835C43.0965 5.79886 43.0426 5.49857 43.0426 5.16748C43.0426 4.667 43.1697 4.23967 43.4238 3.88548C43.6855 3.5313 44.0359 3.26181 44.4748 3.07701C44.9136 2.89222 45.3987 2.79982 45.93 2.79982C46.4305 2.79982 46.8925 2.87682 47.3159 3.03082C47.7471 3.17711 48.0975 3.36575 48.367 3.59674C48.5902 3.77384 48.7019 3.97788 48.7019 4.20887C48.7019 4.37826 48.6364 4.53226 48.5056 4.67085C48.3747 4.80944 48.2207 4.87874 48.0436 4.87874C47.9281 4.87874 47.8241 4.84409 47.7317 4.7748C47.6085 4.667 47.443 4.5669 47.2351 4.47451C47.0272 4.37441 46.8078 4.29357 46.5768 4.23197C46.3458 4.16267 46.1302 4.12802 45.93 4.12802C45.5989 4.12802 45.3179 4.17037 45.0869 4.25507C44.8636 4.33976 44.6942 4.45526 44.5787 4.60155C44.4632 4.74785 44.4055 4.91724 44.4055 5.10973C44.4055 5.34072 44.4709 5.53322 44.6018 5.68721C44.7404 5.8335 44.9367 5.95285 45.1908 6.04525C45.4449 6.12994 45.7491 6.20694 46.1032 6.27624C46.5652 6.36093 46.9695 6.46103 47.3159 6.57653C47.6701 6.69202 47.9627 6.84216 48.1937 7.02696C48.4247 7.20405 48.5979 7.43119 48.7134 7.70838C48.8289 7.97787 48.8867 8.30896 48.8867 8.70164C48.8867 9.20212 48.7481 9.6333 48.4709 9.99519C48.1937 10.3571 47.828 10.6343 47.3737 10.8268C46.9271 11.0192 46.442 11.1155 45.9185 11.1155ZM55.1544 4.7055C55.3546 4.7055 55.5201 4.77095 55.651 4.90184C55.7819 5.03274 55.8474 5.20213 55.8474 5.41002V10.2955C55.8474 10.4957 55.7819 10.6651 55.651 10.8037C55.5201 10.9346 55.3546 11 55.1544 11C54.9542 11 54.7887 10.9346 54.6578 10.8037C54.5269 10.6651 54.4614 10.4957 54.4614 10.2955V9.72955L54.7155 9.8335C54.7155 9.93359 54.6616 10.0568 54.5538 10.2031C54.446 10.3417 54.2997 10.4803 54.1149 10.6189C53.9301 10.7575 53.7107 10.8768 53.4566 10.9769C53.2102 11.0693 52.9407 11.1155 52.6481 11.1155C52.1169 11.1155 51.6356 10.9808 51.2044 10.7113C50.7733 10.4341 50.4306 10.0568 50.1765 9.57941C49.9301 9.09433 49.807 8.53995 49.807 7.91627C49.807 7.2849 49.9301 6.73052 50.1765 6.25314C50.4306 5.76806 50.7694 5.39077 51.1929 5.12128C51.6164 4.84409 52.0861 4.7055 52.6019 4.7055C52.933 4.7055 53.2372 4.75555 53.5144 4.85564C53.7915 4.95574 54.0302 5.08278 54.2304 5.23678C54.4383 5.39077 54.5962 5.54862 54.704 5.71031C54.8195 5.8643 54.8772 5.9952 54.8772 6.10299L54.4614 6.25314V5.41002C54.4614 5.20983 54.5269 5.04429 54.6578 4.91339C54.7887 4.7748 54.9542 4.7055 55.1544 4.7055ZM52.8214 9.84505C53.1602 9.84505 53.4566 9.76035 53.7107 9.59096C53.9648 9.42156 54.1611 9.19057 54.2997 8.89798C54.446 8.60539 54.5192 8.27816 54.5192 7.91627C54.5192 7.54669 54.446 7.2156 54.2997 6.92301C54.1611 6.63042 53.9648 6.39943 53.7107 6.23004C53.4566 6.06065 53.1602 5.97595 52.8214 5.97595C52.4903 5.97595 52.1977 6.06065 51.9436 6.23004C51.6895 6.39943 51.4893 6.63042 51.343 6.92301C51.2044 7.2156 51.1351 7.54669 51.1351 7.91627C51.1351 8.27816 51.2044 8.60539 51.343 8.89798C51.4893 9.19057 51.6895 9.42156 51.9436 9.59096C52.1977 9.76035 52.4903 9.84505 52.8214 9.84505ZM57.4898 4.82099C57.6361 4.82099 57.7709 4.85949 57.8941 4.93649C58.0173 5.00579 58.1097 5.11358 58.1713 5.25988L59.869 9.14052L59.6149 9.25602L61.3474 5.27143C61.4783 4.96344 61.6823 4.81714 61.9595 4.83254C62.152 4.83254 62.306 4.89414 62.4215 5.01734C62.5447 5.13283 62.6063 5.27913 62.6063 5.45622C62.6063 5.51012 62.5947 5.56786 62.5716 5.62946C62.5562 5.69106 62.537 5.74881 62.5139 5.80271L60.3541 10.5611C60.2309 10.8383 60.0346 10.9846 59.7651 11C59.6188 11.0231 59.4764 10.9962 59.3378 10.9192C59.2069 10.8422 59.1068 10.7228 59.0375 10.5611L56.8893 5.80271C56.8739 5.76421 56.8546 5.71416 56.8315 5.65256C56.8161 5.59096 56.8084 5.51782 56.8084 5.43312C56.8084 5.29453 56.87 5.15978 56.9932 5.02889C57.1164 4.89029 57.2819 4.82099 57.4898 4.82099ZM66.5521 11.1155C65.8976 11.1155 65.3278 10.9808 64.8427 10.7113C64.3654 10.4341 63.9958 10.0606 63.734 9.59096C63.4799 9.12127 63.3529 8.59 63.3529 7.99712C63.3529 7.30415 63.4914 6.71512 63.7686 6.23004C64.0535 5.73726 64.4231 5.35997 64.8774 5.09818C65.3317 4.83639 65.8129 4.7055 66.3211 4.7055C66.7138 4.7055 67.0834 4.78635 67.4298 4.94804C67.784 5.10973 68.0959 5.33302 68.3654 5.61791C68.6348 5.8951 68.8466 6.21849 69.0006 6.58807C69.1623 6.95766 69.2431 7.35034 69.2431 7.76613C69.2354 7.95092 69.1623 8.10106 69.0237 8.21656C68.8851 8.33206 68.7234 8.3898 68.5386 8.3898H64.1267L63.7802 7.23485H68.0189L67.7648 7.46584V7.154C67.7494 6.93071 67.6685 6.73052 67.5222 6.55343C67.3836 6.37633 67.2065 6.23774 66.991 6.13764C66.7831 6.02985 66.5598 5.97595 66.3211 5.97595C66.0901 5.97595 65.8745 6.00675 65.6743 6.06835C65.4741 6.12994 65.3009 6.23389 65.1546 6.38018C65.0083 6.52648 64.8928 6.72282 64.8081 6.96921C64.7234 7.2156 64.681 7.52744 64.681 7.90472C64.681 8.32051 64.7657 8.67469 64.9351 8.96728C65.1122 9.25217 65.3355 9.47161 65.605 9.6256C65.8822 9.7719 66.1748 9.84505 66.4828 9.84505C66.7677 9.84505 66.9948 9.82195 67.1642 9.77575C67.3336 9.72955 67.4683 9.67565 67.5684 9.61405C67.6762 9.54476 67.7725 9.48701 67.8572 9.44081C67.9958 9.37151 68.1267 9.33687 68.2499 9.33687C68.4193 9.33687 68.5578 9.39461 68.6656 9.51011C68.7811 9.6256 68.8389 9.76035 68.8389 9.91434C68.8389 10.1222 68.7311 10.3109 68.5155 10.4803C68.3153 10.6497 68.0343 10.7998 67.6724 10.9307C67.3105 11.0539 66.9371 11.1155 66.5521 11.1155Z" fill="white"/>
<path d="M78 3.96826L84.0635 10.0318" stroke="#52E260" stroke-width="1.15495"/>
<path d="M84.3522 5.98926V10.0316H80.5986" stroke="#52E260" stroke-width="1.15495"/>
</svg>
