<svg width="30" height="30" viewBox="0 0 30 30" fill="none" xmlns="http://www.w3.org/2000/svg">
<rect x="0.5" y="0.5" width="29" height="29" rx="14.5" fill="white"/>
<rect x="0.5" y="0.5" width="29" height="29" rx="14.5" stroke="#F5F5F7"/>
<g clip-path="url(#clip0_186_783)">
<path d="M13.7494 22.5C14.8813 22.5 15.8282 21.6931 16.0456 20.625H11.4531C11.6707 21.6931 12.6176 22.5 13.7494 22.5Z" fill="#909090"/>
<path d="M18.485 16.5599C18.4687 16.5599 18.4537 16.5625 18.4375 16.5625C15.6806 16.5625 13.4375 14.3194 13.4375 11.5625C13.4375 10.4794 13.7875 9.4788 14.375 8.65871V8.12496C14.375 7.77935 14.095 7.5 13.75 7.5C13.405 7.5 13.125 7.77935 13.125 8.12496V8.80005C11.0081 9.10503 9.375 10.9257 9.375 13.125V14.8675C9.375 16.1044 8.83312 17.2719 7.88246 18.0756C7.63939 18.2838 7.5 18.5862 7.5 18.9062C7.5 19.5094 7.99061 20 8.59371 20H18.9062C19.5094 20 20 19.5094 20 18.9062C20 18.5862 19.8606 18.2838 19.6113 18.0707C19.1187 17.6538 18.7388 17.135 18.485 16.5599Z" fill="#909090"/>
<path d="M18.4374 7.5C16.1975 7.5 14.375 9.32247 14.375 11.5625C14.375 13.8025 16.1975 15.625 18.4374 15.625C20.6775 15.625 22.5 13.8025 22.5 11.5625C22.5 9.32247 20.6775 7.5 18.4374 7.5ZM19.0625 12.9688C19.0625 13.2275 18.8525 13.4375 18.5938 13.4375C18.335 13.4375 18.125 13.2275 18.125 12.9688V10.9375H17.8125C17.5537 10.9375 17.3437 10.7275 17.3437 10.4687C17.3437 10.21 17.5537 9.99996 17.8125 9.99996H18.5938C18.8525 9.99996 19.0625 10.21 19.0625 10.4687V12.9688Z" fill="#D12E2E"/>
</g>
<defs>
<clipPath id="clip0_186_783">
<rect width="15" height="15" fill="white" transform="translate(7.5 7.5)"/>
</clipPath>
</defs>
</svg>
