<svg width="88" height="15" viewBox="0 0 88 15" fill="none" xmlns="http://www.w3.org/2000/svg">
<path d="M4.78884 11.6155C4.24986 11.6155 3.76478 11.55 3.3336 11.4192C2.90241 11.2806 2.49048 11.0419 2.09779 10.7031C1.9977 10.6184 1.9207 10.5221 1.8668 10.4143C1.81291 10.3065 1.78596 10.1988 1.78596 10.091C1.78596 9.91386 1.84755 9.75987 1.97075 9.62897C2.10164 9.49038 2.26334 9.42108 2.45583 9.42108C2.60212 9.42108 2.73302 9.46728 2.84851 9.55968C3.1411 9.79837 3.42984 9.97931 3.71473 10.1025C4.00732 10.2257 4.36535 10.2873 4.78884 10.2873C5.07373 10.2873 5.33552 10.2449 5.57421 10.1603C5.8129 10.0679 6.00539 9.94851 6.15168 9.80222C6.29798 9.64822 6.37112 9.47498 6.37112 9.28249C6.37112 9.0515 6.30183 8.85515 6.16323 8.69346C6.02464 8.53177 5.8129 8.39702 5.52801 8.28923C5.24312 8.17373 4.88123 8.08519 4.44235 8.02359C4.02657 7.96199 3.66083 7.86959 3.34514 7.7464C3.02946 7.6155 2.76382 7.45381 2.54823 7.26132C2.34033 7.06113 2.18249 6.83013 2.07469 6.56835C1.9669 6.29886 1.913 5.99857 1.913 5.66748C1.913 5.167 2.04005 4.73967 2.29414 4.38548C2.55593 4.0313 2.90626 3.76181 3.34514 3.57701C3.78403 3.39222 4.26911 3.29982 4.80039 3.29982C5.30087 3.29982 5.76285 3.37682 6.18633 3.53082C6.61752 3.67711 6.96785 3.86575 7.23734 4.09674C7.46063 4.27384 7.57228 4.47788 7.57228 4.70887C7.57228 4.87826 7.50683 5.03226 7.37594 5.17085C7.24504 5.30944 7.09105 5.37874 6.91395 5.37874C6.79846 5.37874 6.69451 5.34409 6.60212 5.2748C6.47892 5.167 6.31338 5.0669 6.10549 4.97451C5.89759 4.87441 5.67815 4.79357 5.44716 4.73197C5.21617 4.66267 5.00058 4.62802 4.80039 4.62802C4.4693 4.62802 4.18826 4.67037 3.95727 4.75507C3.73398 4.83976 3.56459 4.95526 3.44909 5.10155C3.3336 5.24785 3.27585 5.41724 3.27585 5.60973C3.27585 5.84072 3.34129 6.03322 3.47219 6.18721C3.61078 6.3335 3.80713 6.45285 4.06122 6.54525C4.31531 6.62994 4.61944 6.70694 4.97363 6.77624C5.43561 6.86093 5.83985 6.96103 6.18633 7.07653C6.54052 7.19202 6.83311 7.34216 7.0641 7.52696C7.29509 7.70405 7.46833 7.93119 7.58383 8.20838C7.69932 8.47787 7.75707 8.80896 7.75707 9.20164C7.75707 9.70212 7.61848 10.1333 7.34129 10.4952C7.0641 10.8571 6.69836 11.1343 6.24408 11.3268C5.7975 11.5192 5.31242 11.6155 4.78884 11.6155ZM9.03537 5.43649H11.7726C11.9574 5.43649 12.1114 5.49809 12.2346 5.62128C12.3578 5.74448 12.4194 5.89847 12.4194 6.08326C12.4194 6.26036 12.3578 6.4105 12.2346 6.5337C12.1114 6.64919 11.9574 6.70694 11.7726 6.70694H9.03537C8.85058 6.70694 8.69658 6.64534 8.57339 6.52215C8.45019 6.39895 8.3886 6.24496 8.3886 6.06017C8.3886 5.88307 8.45019 5.73678 8.57339 5.62128C8.69658 5.49809 8.85058 5.43649 9.03537 5.43649ZM10.2712 3.9928C10.4714 3.9928 10.6331 4.06209 10.7563 4.20069C10.8871 4.33158 10.9526 4.49713 10.9526 4.69732V9.83687C10.9526 9.94466 10.9718 10.0332 11.0103 10.1025C11.0565 10.1718 11.1143 10.2219 11.1836 10.2526C11.2606 10.2834 11.3414 10.2988 11.4261 10.2988C11.5185 10.2988 11.6032 10.2834 11.6802 10.2526C11.7572 10.2142 11.8458 10.1949 11.9459 10.1949C12.0537 10.1949 12.1499 10.2449 12.2346 10.345C12.327 10.4451 12.3732 10.5837 12.3732 10.7608C12.3732 10.9764 12.2538 11.1535 12.0152 11.2921C11.7842 11.4307 11.5339 11.5 11.2644 11.5C11.1027 11.5 10.9218 11.4885 10.7216 11.4654C10.5291 11.4346 10.3443 11.3691 10.1672 11.269C9.99783 11.1612 9.85539 10.9995 9.73989 10.7839C9.6244 10.5683 9.56665 10.2719 9.56665 9.89461V4.69732C9.56665 4.49713 9.6321 4.33158 9.76299 4.20069C9.90159 4.06209 10.071 3.9928 10.2712 3.9928ZM16.546 11.6155C15.8915 11.6155 15.3217 11.4808 14.8367 11.2113C14.3593 10.9341 13.9897 10.5606 13.7279 10.091C13.4738 9.62127 13.3468 9.09 13.3468 8.49712C13.3468 7.80415 13.4854 7.21512 13.7626 6.73004C14.0475 6.23726 14.417 5.85997 14.8713 5.59818C15.3256 5.33639 15.8068 5.2055 16.315 5.2055C16.7077 5.2055 17.0773 5.28635 17.4238 5.44804C17.778 5.60973 18.0898 5.83302 18.3593 6.11791C18.6288 6.3951 18.8405 6.71849 18.9945 7.08807C19.1562 7.45766 19.237 7.85034 19.237 8.26613C19.2293 8.45092 19.1562 8.60106 19.0176 8.71656C18.879 8.83206 18.7173 8.8898 18.5325 8.8898H14.1206L13.7741 7.73485H18.0128L17.7587 7.96584V7.654C17.7433 7.43071 17.6625 7.23052 17.5162 7.05343C17.3776 6.87633 17.2005 6.73774 16.9849 6.63764C16.777 6.52985 16.5537 6.47595 16.315 6.47595C16.084 6.47595 15.8684 6.50675 15.6682 6.56835C15.468 6.62994 15.2948 6.73389 15.1485 6.88018C15.0022 7.02648 14.8867 7.22282 14.802 7.46921C14.7173 7.7156 14.675 8.02744 14.675 8.40472C14.675 8.82051 14.7597 9.17469 14.9291 9.46728C15.1062 9.75217 15.3294 9.97161 15.5989 10.1256C15.8761 10.2719 16.1687 10.345 16.4767 10.345C16.7616 10.345 16.9887 10.3219 17.1581 10.2757C17.3275 10.2296 17.4623 10.1757 17.5624 10.1141C17.6702 10.0448 17.7664 9.98701 17.8511 9.94081C17.9897 9.87151 18.1206 9.83687 18.2438 9.83687C18.4132 9.83687 18.5518 9.89461 18.6596 10.0101C18.7751 10.1256 18.8328 10.2603 18.8328 10.4143C18.8328 10.6222 18.725 10.8109 18.5094 10.9803C18.3092 11.1497 18.0282 11.2998 17.6663 11.4307C17.3044 11.5539 16.931 11.6155 16.546 11.6155ZM25.5518 5.2055C25.7519 5.2055 25.9175 5.27095 26.0484 5.40184C26.1793 5.53274 26.2447 5.70213 26.2447 5.91002V10.7955C26.2447 10.9957 26.1793 11.1651 26.0484 11.3037C25.9175 11.4346 25.7519 11.5 25.5518 11.5C25.3516 11.5 25.186 11.4346 25.0551 11.3037C24.9242 11.1651 24.8588 10.9957 24.8588 10.7955V10.2296L25.1129 10.3335C25.1129 10.4336 25.059 10.5568 24.9512 10.7031C24.8434 10.8417 24.6971 10.9803 24.5123 11.1189C24.3275 11.2575 24.1081 11.3768 23.854 11.4769C23.6076 11.5693 23.3381 11.6155 23.0455 11.6155C22.5142 11.6155 22.033 11.4808 21.6018 11.2113C21.1706 10.9341 20.828 10.5568 20.5739 10.0794C20.3275 9.59433 20.2043 9.03995 20.2043 8.41627C20.2043 7.7849 20.3275 7.23052 20.5739 6.75314C20.828 6.26806 21.1668 5.89077 21.5903 5.62128C22.0137 5.34409 22.4834 5.2055 22.9993 5.2055C23.3304 5.2055 23.6345 5.25555 23.9117 5.35564C24.1889 5.45574 24.4276 5.58278 24.6278 5.73678C24.8357 5.89077 24.9935 6.04862 25.1013 6.21031C25.2168 6.3643 25.2746 6.4952 25.2746 6.60299L24.8588 6.75314V5.91002C24.8588 5.70983 24.9242 5.54429 25.0551 5.41339C25.186 5.2748 25.3516 5.2055 25.5518 5.2055ZM23.2187 10.345C23.5575 10.345 23.854 10.2603 24.1081 10.091C24.3622 9.92156 24.5585 9.69057 24.6971 9.39798C24.8434 9.10539 24.9165 8.77816 24.9165 8.41627C24.9165 8.04669 24.8434 7.7156 24.6971 7.42301C24.5585 7.13042 24.3622 6.89943 24.1081 6.73004C23.854 6.56065 23.5575 6.47595 23.2187 6.47595C22.8877 6.47595 22.5951 6.56065 22.341 6.73004C22.0869 6.89943 21.8867 7.13042 21.7404 7.42301C21.6018 7.7156 21.5325 8.04669 21.5325 8.41627C21.5325 8.77816 21.6018 9.10539 21.7404 9.39798C21.8867 9.69057 22.0869 9.92156 22.341 10.091C22.5951 10.2603 22.8877 10.345 23.2187 10.345ZM32.8041 2.95334C33.0042 2.95334 33.1698 3.01879 33.3007 3.14968C33.4316 3.28058 33.497 3.44997 33.497 3.65786V10.7955C33.497 10.9957 33.4316 11.1651 33.3007 11.3037C33.1698 11.4346 33.0042 11.5 32.8041 11.5C32.6039 11.5 32.4383 11.4346 32.3074 11.3037C32.1765 11.1651 32.1111 10.9957 32.1111 10.7955V10.2296L32.3652 10.3335C32.3652 10.4336 32.3113 10.5568 32.2035 10.7031C32.0957 10.8417 31.9494 10.9803 31.7646 11.1189C31.5798 11.2575 31.3604 11.3768 31.1063 11.4769C30.8599 11.5693 30.5904 11.6155 30.2978 11.6155C29.7665 11.6155 29.2853 11.4808 28.8541 11.2113C28.4229 10.9341 28.0803 10.5568 27.8262 10.0794C27.5798 9.59433 27.4566 9.03995 27.4566 8.41627C27.4566 7.7849 27.5798 7.23052 27.8262 6.75314C28.0803 6.26806 28.4191 5.89077 28.8426 5.62128C29.266 5.34409 29.7357 5.2055 30.2516 5.2055C30.5827 5.2055 30.8868 5.25555 31.164 5.35564C31.4412 5.45574 31.6799 5.58278 31.8801 5.73678C32.088 5.89077 32.2458 6.04862 32.3536 6.21031C32.4691 6.3643 32.5269 6.4952 32.5269 6.60299L32.1111 6.75314V3.65786C32.1111 3.45767 32.1765 3.29212 32.3074 3.16123C32.4383 3.02264 32.6039 2.95334 32.8041 2.95334ZM30.471 10.345C30.8098 10.345 31.1063 10.2603 31.3604 10.091C31.6145 9.92156 31.8108 9.69057 31.9494 9.39798C32.0957 9.10539 32.1688 8.77816 32.1688 8.41627C32.1688 8.04669 32.0957 7.7156 31.9494 7.42301C31.8108 7.13042 31.6145 6.89943 31.3604 6.73004C31.1063 6.56065 30.8098 6.47595 30.471 6.47595C30.14 6.47595 29.8474 6.56065 29.5933 6.73004C29.3392 6.89943 29.139 7.13042 28.9927 7.42301C28.8541 7.7156 28.7848 8.04669 28.7848 8.41627C28.7848 8.77816 28.8541 9.10539 28.9927 9.39798C29.139 9.69057 29.3392 9.92156 29.5933 10.091C29.8474 10.2603 30.14 10.345 30.471 10.345ZM39.5828 5.32099C39.783 5.32099 39.9486 5.39029 40.0795 5.52889C40.2104 5.65978 40.2758 5.82532 40.2758 6.02552V10.9341C40.2758 11.6424 40.1411 12.2045 39.8716 12.6203C39.6098 13.0438 39.2556 13.3479 38.809 13.5327C38.3624 13.7175 37.8619 13.8099 37.3076 13.8099C37.0612 13.8099 36.7994 13.7907 36.5222 13.7522C36.245 13.7137 36.0179 13.6559 35.8408 13.5789C35.6098 13.4788 35.4481 13.3518 35.3557 13.1978C35.271 13.0515 35.2556 12.8936 35.3095 12.7243C35.3788 12.501 35.4904 12.347 35.6444 12.2623C35.7984 12.1853 35.9601 12.1776 36.1295 12.2392C36.2527 12.2777 36.4144 12.3354 36.6146 12.4124C36.8148 12.4971 37.0458 12.5395 37.3076 12.5395C37.6618 12.5395 37.9543 12.4894 38.1853 12.3893C38.424 12.2969 38.6011 12.1352 38.7166 11.9042C38.8398 11.6809 38.9014 11.373 38.9014 10.9803V10.2065L39.1439 10.4836C39.013 10.7377 38.8475 10.9495 38.6473 11.1189C38.4548 11.2806 38.2238 11.4038 37.9543 11.4885C37.6849 11.5731 37.3769 11.6155 37.0304 11.6155C36.6223 11.6155 36.2643 11.5231 35.9563 11.3383C35.656 11.1458 35.4211 10.884 35.2517 10.5529C35.0824 10.2142 34.9977 9.82917 34.9977 9.39798V6.02552C34.9977 5.82532 35.0631 5.65978 35.194 5.52889C35.3249 5.39029 35.4904 5.32099 35.6906 5.32099C35.8908 5.32099 36.0564 5.39029 36.1873 5.52889C36.3182 5.65978 36.3836 5.82532 36.3836 6.02552V8.9822C36.3836 9.48268 36.4914 9.83687 36.707 10.0448C36.9303 10.2449 37.2383 10.345 37.631 10.345C37.9004 10.345 38.1276 10.295 38.3124 10.1949C38.4972 10.0871 38.6396 9.93311 38.7397 9.73292C38.8398 9.52503 38.8899 9.27479 38.8899 8.9822V6.02552C38.8899 5.82532 38.9553 5.65978 39.0862 5.52889C39.2171 5.39029 39.3826 5.32099 39.5828 5.32099ZM47.7274 11.6155C47.1884 11.6155 46.7034 11.55 46.2722 11.4192C45.841 11.2806 45.4291 11.0419 45.0364 10.7031C44.9363 10.6184 44.8593 10.5221 44.8054 10.4143C44.7515 10.3065 44.7245 10.1988 44.7245 10.091C44.7245 9.91386 44.7861 9.75987 44.9093 9.62897C45.0402 9.49038 45.2019 9.42108 45.3944 9.42108C45.5407 9.42108 45.6716 9.46728 45.7871 9.55968C46.0797 9.79837 46.3684 9.97931 46.6533 10.1025C46.9459 10.2257 47.3039 10.2873 47.7274 10.2873C48.0123 10.2873 48.2741 10.2449 48.5128 10.1603C48.7515 10.0679 48.944 9.94851 49.0903 9.80222C49.2366 9.64822 49.3097 9.47498 49.3097 9.28249C49.3097 9.0515 49.2404 8.85515 49.1018 8.69346C48.9632 8.53177 48.7515 8.39702 48.4666 8.28923C48.1817 8.17373 47.8198 8.08519 47.3809 8.02359C46.9652 7.96199 46.5994 7.86959 46.2837 7.7464C45.968 7.6155 45.7024 7.45381 45.4868 7.26132C45.2789 7.06113 45.1211 6.83013 45.0133 6.56835C44.9055 6.29886 44.8516 5.99857 44.8516 5.66748C44.8516 5.167 44.9786 4.73967 45.2327 4.38548C45.4945 4.0313 45.8448 3.76181 46.2837 3.57701C46.7226 3.39222 47.2077 3.29982 47.739 3.29982C48.2395 3.29982 48.7014 3.37682 49.1249 3.53082C49.5561 3.67711 49.9064 3.86575 50.1759 4.09674C50.3992 4.27384 50.5109 4.47788 50.5109 4.70887C50.5109 4.87826 50.4454 5.03226 50.3145 5.17085C50.1836 5.30944 50.0296 5.37874 49.8525 5.37874C49.737 5.37874 49.6331 5.34409 49.5407 5.2748C49.4175 5.167 49.252 5.0669 49.0441 4.97451C48.8362 4.87441 48.6167 4.79357 48.3857 4.73197C48.1548 4.66267 47.9392 4.62802 47.739 4.62802C47.4079 4.62802 47.1268 4.67037 46.8959 4.75507C46.6726 4.83976 46.5032 4.95526 46.3877 5.10155C46.2722 5.24785 46.2144 5.41724 46.2144 5.60973C46.2144 5.84072 46.2799 6.03322 46.4108 6.18721C46.5494 6.3335 46.7457 6.45285 46.9998 6.54525C47.2539 6.62994 47.558 6.70694 47.9122 6.77624C48.3742 6.86093 48.7784 6.96103 49.1249 7.07653C49.4791 7.19202 49.7717 7.34216 50.0027 7.52696C50.2337 7.70405 50.4069 7.93119 50.5224 8.20838C50.6379 8.47787 50.6957 8.80896 50.6957 9.20164C50.6957 9.70212 50.5571 10.1333 50.2799 10.4952C50.0027 10.8571 49.6369 11.1343 49.1827 11.3268C48.7361 11.5192 48.251 11.6155 47.7274 11.6155ZM56.9634 5.2055C57.1635 5.2055 57.3291 5.27095 57.46 5.40184C57.5909 5.53274 57.6563 5.70213 57.6563 5.91002V10.7955C57.6563 10.9957 57.5909 11.1651 57.46 11.3037C57.3291 11.4346 57.1635 11.5 56.9634 11.5C56.7632 11.5 56.5976 11.4346 56.4667 11.3037C56.3358 11.1651 56.2704 10.9957 56.2704 10.7955V10.2296L56.5245 10.3335C56.5245 10.4336 56.4706 10.5568 56.3628 10.7031C56.255 10.8417 56.1087 10.9803 55.9239 11.1189C55.7391 11.2575 55.5197 11.3768 55.2656 11.4769C55.0192 11.5693 54.7497 11.6155 54.4571 11.6155C53.9258 11.6155 53.4446 11.4808 53.0134 11.2113C52.5822 10.9341 52.2396 10.5568 51.9855 10.0794C51.7391 9.59433 51.6159 9.03995 51.6159 8.41627C51.6159 7.7849 51.7391 7.23052 51.9855 6.75314C52.2396 6.26806 52.5784 5.89077 53.0019 5.62128C53.4253 5.34409 53.895 5.2055 54.4109 5.2055C54.742 5.2055 55.0461 5.25555 55.3233 5.35564C55.6005 5.45574 55.8392 5.58278 56.0394 5.73678C56.2473 5.89077 56.4051 6.04862 56.5129 6.21031C56.6284 6.3643 56.6862 6.4952 56.6862 6.60299L56.2704 6.75314V5.91002C56.2704 5.70983 56.3358 5.54429 56.4667 5.41339C56.5976 5.2748 56.7632 5.2055 56.9634 5.2055ZM54.6303 10.345C54.9691 10.345 55.2656 10.2603 55.5197 10.091C55.7738 9.92156 55.9701 9.69057 56.1087 9.39798C56.255 9.10539 56.3281 8.77816 56.3281 8.41627C56.3281 8.04669 56.255 7.7156 56.1087 7.42301C55.9701 7.13042 55.7738 6.89943 55.5197 6.73004C55.2656 6.56065 54.9691 6.47595 54.6303 6.47595C54.2993 6.47595 54.0067 6.56065 53.7526 6.73004C53.4985 6.89943 53.2983 7.13042 53.152 7.42301C53.0134 7.7156 52.9441 8.04669 52.9441 8.41627C52.9441 8.77816 53.0134 9.10539 53.152 9.39798C53.2983 9.69057 53.4985 9.92156 53.7526 10.091C54.0067 10.2603 54.2993 10.345 54.6303 10.345ZM59.2988 5.32099C59.4451 5.32099 59.5798 5.35949 59.703 5.43649C59.8262 5.50579 59.9186 5.61358 59.9802 5.75988L61.678 9.64052L61.4239 9.75602L63.1563 5.77143C63.2872 5.46344 63.4913 5.31714 63.7685 5.33254C63.961 5.33254 64.115 5.39414 64.2305 5.51734C64.3536 5.63283 64.4152 5.77913 64.4152 5.95622C64.4152 6.01012 64.4037 6.06786 64.3806 6.12946C64.3652 6.19106 64.3459 6.24881 64.3229 6.30271L62.1631 11.0611C62.0399 11.3383 61.8435 11.4846 61.5741 11.5C61.4278 11.5231 61.2853 11.4962 61.1467 11.4192C61.0158 11.3422 60.9157 11.2228 60.8464 11.0611L58.6982 6.30271C58.6828 6.26421 58.6636 6.21416 58.6405 6.15256C58.6251 6.09096 58.6174 6.01782 58.6174 5.93312C58.6174 5.79453 58.679 5.65978 58.8022 5.52889C58.9254 5.39029 59.0909 5.32099 59.2988 5.32099ZM68.361 11.6155C67.7066 11.6155 67.1368 11.4808 66.6517 11.2113C66.1743 10.9341 65.8047 10.5606 65.5429 10.091C65.2889 9.62127 65.1618 9.09 65.1618 8.49712C65.1618 7.80415 65.3004 7.21512 65.5776 6.73004C65.8625 6.23726 66.2321 5.85997 66.6864 5.59818C67.1406 5.33639 67.6219 5.2055 68.13 5.2055C68.5227 5.2055 68.8923 5.28635 69.2388 5.44804C69.593 5.60973 69.9048 5.83302 70.1743 6.11791C70.4438 6.3951 70.6555 6.71849 70.8095 7.08807C70.9712 7.45766 71.0521 7.85034 71.0521 8.26613C71.0444 8.45092 70.9712 8.60106 70.8326 8.71656C70.694 8.83206 70.5324 8.8898 70.3476 8.8898H65.9356L65.5891 7.73485H69.8278L69.5737 7.96584V7.654C69.5583 7.43071 69.4775 7.23052 69.3312 7.05343C69.1926 6.87633 69.0155 6.73774 68.7999 6.63764C68.592 6.52985 68.3687 6.47595 68.13 6.47595C67.8991 6.47595 67.6835 6.50675 67.4833 6.56835C67.2831 6.62994 67.1098 6.73389 66.9635 6.88018C66.8172 7.02648 66.7018 7.22282 66.6171 7.46921C66.5324 7.7156 66.49 8.02744 66.49 8.40472C66.49 8.82051 66.5747 9.17469 66.7441 9.46728C66.9212 9.75217 67.1445 9.97161 67.414 10.1256C67.6912 10.2719 67.9838 10.345 68.2917 10.345C68.5766 10.345 68.8038 10.3219 68.9732 10.2757C69.1426 10.2296 69.2773 10.1757 69.3774 10.1141C69.4852 10.0448 69.5814 9.98701 69.6661 9.94081C69.8047 9.87151 69.9356 9.83687 70.0588 9.83687C70.2282 9.83687 70.3668 9.89461 70.4746 10.0101C70.5901 10.1256 70.6478 10.2603 70.6478 10.4143C70.6478 10.6222 70.5401 10.8109 70.3245 10.9803C70.1243 11.1497 69.8432 11.2998 69.4813 11.4307C69.1195 11.5539 68.746 11.6155 68.361 11.6155Z" fill="black"/>
<path d="M80.324 4.46777L86.3875 10.5313" stroke="#E7A139" stroke-width="1.15495"/>
<path d="M86.6762 6.48926V10.5316H82.9226" stroke="#E7A139" stroke-width="1.15495"/>
</svg>
